<svg width="38" height="38" viewBox="0 0 38 38" fill="none" xmlns="http://www.w3.org/2000/svg">
<path d="M23.4096 9.72595L16.9253 11.4364C15.451 11.8259 14.8145 13.2535 15.5062 14.6022L17.6249 18.7784C17.907 19.3219 18.629 19.8556 19.2313 19.9659L23.8452 20.7667C25.3442 21.0235 26.5222 19.9962 26.4556 18.4815L26.1983 11.7875C26.1541 10.2614 24.8906 9.32737 23.4096 9.72595Z" stroke="#FF4950" stroke-width="1.5" stroke-miterlimit="10" stroke-linecap="round" stroke-linejoin="round"/>
<path d="M25.3086 10.082L21.7994 14.8291" stroke="#FF4950" stroke-width="1.5" stroke-miterlimit="10" stroke-linecap="round" stroke-linejoin="round"/>
<path d="M15.9063 14.8702L21.7983 14.8294L23.4872 20.4743" stroke="#FF4950" stroke-width="1.5" stroke-miterlimit="10" stroke-linecap="round" stroke-linejoin="round"/>
<path d="M14.3016 18.8765L15.2743 20.6004C15.8969 21.7027 16.9619 22.49 18.2073 22.7687L20.1407 23.193C21.8673 23.5761 21.9067 26.0338 20.1903 26.4676L14.2456 27.9768C12.7847 28.3483 11.5302 27.421 11.4479 25.9086L11.1564 19.7894C11.0588 18.0146 13.42 17.3315 14.3016 18.8765Z" stroke="#FF4950" stroke-width="1.5" stroke-miterlimit="10" stroke-linecap="round" stroke-linejoin="round"/>
</svg>
